<!DOCTYPE svg PUBLIC "-//W3C//DTD SVG 1.1//EN" "http://www.w3.org/Graphics/SVG/1.1/DTD/svg11.dtd">
<!-- Uploaded to: SVG Repo, www.svgrepo.com, Transformed by: SVG Repo Mixer Tools -->
<svg width="800px" height="800px" viewBox="0 0 24 24" id="Layer_1" data-name="Layer 1" xmlns="http://www.w3.org/2000/svg" fill="#ffffff">
<g id="SVGRepo_bgCarrier" stroke-width="0"/>
<g id="SVGRepo_tracerCarrier" stroke-linecap="round" stroke-linejoin="round"/>
<g id="SVGRepo_iconCarrier">
<defs>
<style>.cls-1{fill:none;stroke:#FFFFFF;stroke-miterlimit:10;stroke-width:1.91px;}</style>
</defs>
<path class="cls-1" d="M1.5,9.14H19.64A2.86,2.86,0,0,1,22.5,12v1.91a0,0,0,0,1,0,0H1.5a0,0,0,0,1,0,0V9.14A0,0,0,0,1,1.5,9.14Z"/>
<rect class="cls-1" x="1.5" y="13.91" width="21" height="3.82"/>
<line class="cls-1" x1="1.5" y1="21.55" x2="1.5" y2="2.45"/>
<line class="cls-1" x1="22.5" y1="21.55" x2="22.5" y2="17.73"/>
<path class="cls-1" d="M3.56,5.32H6.12A2.06,2.06,0,0,1,8.18,7.38v0A1.76,1.76,0,0,1,6.43,9.14H3.26A1.76,1.76,0,0,1,1.5,7.38v0A2.06,2.06,0,0,1,3.56,5.32Z"/>
<line class="cls-1" x1="12" y1="9.14" x2="12" y2="13.91"/>
</g>
</svg>